<svg xmlns="http://www.w3.org/2000/svg" width="260" height="260" data-name="Layer 2"><defs><clipPath id="a"><rect width="260" height="260" fill="none" rx="16" ry="16"/></clipPath></defs><g clip-path="url(#a)" data-name="Layer 1"><rect width="260" height="260" fill="#f5f5f5" rx="16" ry="16"/><circle cx="135" cy="132" r="91" fill="none" stroke="#3458ea" stroke-width="2" opacity=".3"/><circle cx="135" cy="132" r="72.5" fill="#fff" stroke="#3458ea" stroke-width="3" opacity=".5"/><circle cx="135" cy="132" r="56" fill="#fff"/><circle cx="135" cy="132" r="54.5" fill="none" stroke="#3458ea" stroke-width="3"/><circle cx="135" cy="132" r="114.5" fill="none" stroke="#3458ea" opacity=".1"/><circle cx="135" cy="132" r="136.5" fill="none" stroke="#3458ea" opacity=".1"/><circle cx="141.16" cy="118" r="25" fill="#fff"/><circle cx="131.16" cy="118" r="25" fill="#fff"/><path fill="#fff" d="M109 57H97l27 27c.17-1.67.3-6.7-.5-13.5C122.5 62 112 57 109 57Zm29.5 20.5v14l12.5 1c9-1 15-11.5 15-15.5s-.17-9-.5-12.5h-13c-8 0-14 10.5-14 13Z"/><path stroke="#000" d="m137.89 93.7.6-.6h11.4c3.99 0 7.75-1.56 10.57-4.4l2.32-2.31a14.98 14.98 0 0 0 4.38-10.62V63.95c0-.49-.39-.88-.88-.88h-11.77c-.78 0-1.55.08-2.31.2h-.02c-2.83.44-5.46 1.69-7.62 3.63l-.03.03c-.2.18-.4.35-.59.54l-2.32 2.32a14.963 14.963 0 0 0-4.38 10.62v11.44l-.6.6a22.231 22.231 0 0 0-4.75 7.11c-.34-5.36-2.56-10.35-6.37-14.17l-.6-.6V73.34c0-4.01-1.56-7.78-4.38-10.62l-2.32-2.32c-.18-.19-.39-.36-.59-.54l-.03-.03a14.73 14.73 0 0 0-7.62-3.63s-.01-.01-.02-.01c-.76-.11-1.53-.19-2.31-.19H95.88c-.36 0-.68.22-.81.54-.14.33-.06.71.19.97l29 29.12c3.83 3.84 5.93 8.94 5.93 14.37v9.81c-10.92.38-20.11 7.65-23.36 17.62-4.33 16.57 3.67 35.9 34.8 33.57 14.03-1.05 25.51-11.49 25.51-25.62s-11.44-25.61-25.51-25.61h-9.68v-.94c0-5.43 2.11-12.29 5.93-16.13h.01Zm23.64-8.56-2.31 2.31a13.069 13.069 0 0 1-9.34 3.89h-9.64l8.8-8.84h14.51c-.56.95-1.22 1.84-2.02 2.64Zm-15.49-17.21c1.54-1.3 3.34-2.21 5.28-2.69v12.48l-5.28 5.3V67.93Zm19.36 7.84c0 1.73-.34 3.41-.97 4.97H150.8l14.59-14.65v9.68h.01Zm-1.25-10.93-11.07 11.11V64.92c.47-.06.95-.09 1.43-.09h9.64v.01ZM139 80.41c0-3.54 1.37-6.87 3.87-9.37l1.41-1.42v15.17l-5.28 5.3v-9.68Zm-28.15-22.23c1.93.48 3.73 1.38 5.28 2.69v15.09l-5.28-5.3V58.18Zm-3.19-.41c.48 0 .96.03 1.43.09v11.03L98.01 57.78h9.65v-.01Zm10.23 19.95V62.55l1.41 1.42a13.21 13.21 0 0 1 3.86 9.37v9.68l-5.27-5.3Zm12.31 34.86v12.32h-4.4c-3.39 0-6.15 2.78-6.15 6.19s2.76 6.18 6.15 6.18h4.4v8.83h-9.67c-.49 0-.88.4-.88.89s.39.88.88.88h9.67v6.18c0 .49.4.89.88.89.49 0 .88-.4.88-.89v-6.18h4.4c3.4 0 6.16-2.77 6.16-6.18s-2.76-6.19-6.16-6.19h-4.4v-8.83h9.68c.49 0 .88-.39.88-.88s-.39-.89-.88-.89h-9.68v-12.32c12.7.47 22.88 10.96 22.88 23.81 0 13.15-10.66 23.85-23.76 23.85s-23.75-10.7-23.75-23.85c0-12.85 10.18-23.34 22.87-23.81Zm0 14.09v8.83h-4.4c-2.42 0-4.39-1.97-4.39-4.41s1.97-4.42 4.39-4.42h4.4Zm1.76 10.6h4.4c2.43 0 4.4 1.98 4.4 4.42s-1.97 4.41-4.4 4.41h-4.4v-8.83Zm33.44-.88c0 13.15-10.66 23.85-23.76 23.85h-1.31c9.5-3.73 16.27-13 16.27-23.85s-6.77-20.12-16.27-23.85h1.31c13.1 0 23.76 10.7 23.76 23.85Z"/></g></svg>